<?xml version="1.0" encoding="UTF-8" standalone="no"?>
<!DOCTYPE svg PUBLIC "-//W3C//DTD SVG 1.1//EN"
 "http://www.w3.org/Graphics/SVG/1.1/DTD/svg11.dtd">
<!-- Generated by graphviz version 2.42.3 (20191010.1750)
 -->
<!-- Title: snakemake_dag Pages: 1 -->
<svg width="184pt" height="260pt"
 viewBox="0.00 0.00 183.50 260.00" xmlns="http://www.w3.org/2000/svg" xmlns:xlink="http://www.w3.org/1999/xlink">
<g id="graph0" class="graph" transform="scale(1 1) rotate(0) translate(4 256)">
<title>snakemake_dag</title>
<polygon fill="white" stroke="transparent" points="-4,4 -4,-256 179.5,-256 179.5,4 -4,4"/>
<!-- 0 -->
<g id="node1" class="node">
<title>0</title>
<path fill="none" stroke="#d85656" stroke-width="2" d="M83.5,-36C83.5,-36 53.5,-36 53.5,-36 47.5,-36 41.5,-30 41.5,-24 41.5,-24 41.5,-12 41.5,-12 41.5,-6 47.5,0 53.5,0 53.5,0 83.5,0 83.5,0 89.5,0 95.5,-6 95.5,-12 95.5,-12 95.5,-24 95.5,-24 95.5,-30 89.5,-36 83.5,-36"/>
<text text-anchor="middle" x="68.5" y="-15.5" font-family="sans" font-size="10.00">all</text>
</g>
<!-- 1 -->
<g id="node2" class="node">
<title>1</title>
<path fill="none" stroke="#88d856" stroke-width="2" d="M91.5,-108C91.5,-108 45.5,-108 45.5,-108 39.5,-108 33.5,-102 33.5,-96 33.5,-96 33.5,-84 33.5,-84 33.5,-78 39.5,-72 45.5,-72 45.5,-72 91.5,-72 91.5,-72 97.5,-72 103.5,-78 103.5,-84 103.5,-84 103.5,-96 103.5,-96 103.5,-102 97.5,-108 91.5,-108"/>
<text text-anchor="middle" x="68.5" y="-87.5" font-family="sans" font-size="10.00">meRanCall</text>
</g>
<!-- 1&#45;&gt;0 -->
<g id="edge3" class="edge">
<title>1&#45;&gt;0</title>
<path fill="none" stroke="grey" stroke-width="2" d="M68.5,-71.7C68.5,-63.98 68.5,-54.71 68.5,-46.11"/>
<polygon fill="grey" stroke="grey" stroke-width="2" points="72,-46.1 68.5,-36.1 65,-46.1 72,-46.1"/>
</g>
<!-- 2 -->
<g id="node3" class="node">
<title>2</title>
<path fill="none" stroke="#56d88a" stroke-width="2" d="M163.5,-108C163.5,-108 133.5,-108 133.5,-108 127.5,-108 121.5,-102 121.5,-96 121.5,-96 121.5,-84 121.5,-84 121.5,-78 127.5,-72 133.5,-72 133.5,-72 163.5,-72 163.5,-72 169.5,-72 175.5,-78 175.5,-84 175.5,-84 175.5,-96 175.5,-96 175.5,-102 169.5,-108 163.5,-108"/>
<text text-anchor="middle" x="148.5" y="-87.5" font-family="sans" font-size="10.00">fastqc</text>
</g>
<!-- 2&#45;&gt;0 -->
<g id="edge2" class="edge">
<title>2&#45;&gt;0</title>
<path fill="none" stroke="grey" stroke-width="2" d="M128.72,-71.7C118.75,-62.97 106.49,-52.24 95.64,-42.75"/>
<polygon fill="grey" stroke="grey" stroke-width="2" points="97.88,-40.06 88.05,-36.1 93.27,-45.32 97.88,-40.06"/>
</g>
<!-- 3 -->
<g id="node4" class="node">
<title>3</title>
<path fill="none" stroke="#56c1d8" stroke-width="2" d="M53,-180C53,-180 20,-180 20,-180 14,-180 8,-174 8,-168 8,-168 8,-156 8,-156 8,-150 14,-144 20,-144 20,-144 53,-144 53,-144 59,-144 65,-150 65,-156 65,-156 65,-168 65,-168 65,-174 59,-180 53,-180"/>
<text text-anchor="middle" x="36.5" y="-159.5" font-family="sans" font-size="10.00">meRanT</text>
</g>
<!-- 3&#45;&gt;0 -->
<g id="edge1" class="edge">
<title>3&#45;&gt;0</title>
<path fill="none" stroke="grey" stroke-width="2" d="M29.48,-143.76C23.1,-125.45 15.87,-95.9 24.5,-72 28.25,-61.6 35.04,-51.8 42.17,-43.52"/>
<polygon fill="grey" stroke="grey" stroke-width="2" points="44.82,-45.81 49.03,-36.08 39.67,-41.06 44.82,-45.81"/>
</g>
<!-- 3&#45;&gt;1 -->
<g id="edge4" class="edge">
<title>3&#45;&gt;1</title>
<path fill="none" stroke="grey" stroke-width="2" d="M44.41,-143.7C48.05,-135.73 52.45,-126.1 56.49,-117.26"/>
<polygon fill="grey" stroke="grey" stroke-width="2" points="59.71,-118.65 60.68,-108.1 53.34,-115.74 59.71,-118.65"/>
</g>
<!-- 4 -->
<g id="node5" class="node">
<title>4</title>
<path fill="none" stroke="#d8bc56" stroke-width="2" d="M61,-252C61,-252 12,-252 12,-252 6,-252 0,-246 0,-240 0,-240 0,-228 0,-228 0,-222 6,-216 12,-216 12,-216 61,-216 61,-216 67,-216 73,-222 73,-228 73,-228 73,-240 73,-240 73,-246 67,-252 61,-252"/>
<text text-anchor="middle" x="36.5" y="-231.5" font-family="sans" font-size="10.00">trim_galore</text>
</g>
<!-- 4&#45;&gt;3 -->
<g id="edge5" class="edge">
<title>4&#45;&gt;3</title>
<path fill="none" stroke="grey" stroke-width="2" d="M36.5,-215.7C36.5,-207.98 36.5,-198.71 36.5,-190.11"/>
<polygon fill="grey" stroke="grey" stroke-width="2" points="40,-190.1 36.5,-180.1 33,-190.1 40,-190.1"/>
</g>
</g>
</svg>
